<svg xmlns="http://www.w3.org/2000/svg" width="800" height="400" viewBox="0 0 800 400">
  <defs>
    <linearGradient id="bg3" x1="0" y1="0" x2="1" y2="1">
      <stop offset="0%" stop-color="#1a1a2e"/>
      <stop offset="100%" stop-color="#16213e"/>
    </linearGradient>
  </defs>
  <rect width="800" height="400" fill="url(#bg3)"/>
  <line x1="0" y1="260" x2="800" y2="260" stroke="#de0e14" stroke-width="1.5" opacity="0.35"/>
  <!-- Row 1: large -->
  <rect x="40" y="190" width="110" height="18" fill="#de0e14" opacity="0.65" rx="2"/>
  <rect x="180" y="190" width="110" height="18" fill="#de0e14" opacity="0.7" rx="2"/>
  <rect x="320" y="190" width="110" height="18" fill="#de0e14" opacity="0.65" rx="2"/>
  <rect x="460" y="190" width="110" height="18" fill="#de0e14" opacity="0.7" rx="2"/>
  <rect x="600" y="190" width="110" height="18" fill="#de0e14" opacity="0.65" rx="2"/>
  <rect x="90" y="208" width="4" height="52" fill="#de0e14" opacity="0.4"/>
  <rect x="230" y="208" width="4" height="52" fill="#de0e14" opacity="0.4"/>
  <rect x="370" y="208" width="4" height="52" fill="#de0e14" opacity="0.4"/>
  <rect x="510" y="208" width="4" height="52" fill="#de0e14" opacity="0.4"/>
  <rect x="650" y="208" width="4" height="52" fill="#de0e14" opacity="0.4"/>
  <!-- Row 2: medium -->
  <rect x="60" y="215" width="85" height="14" fill="#de0e14" opacity="0.5" rx="1"/>
  <rect x="190" y="215" width="85" height="14" fill="#de0e14" opacity="0.55" rx="1"/>
  <rect x="320" y="215" width="85" height="14" fill="#de0e14" opacity="0.5" rx="1"/>
  <rect x="450" y="215" width="85" height="14" fill="#de0e14" opacity="0.55" rx="1"/>
  <rect x="580" y="215" width="85" height="14" fill="#de0e14" opacity="0.5" rx="1"/>
  <!-- Row 3: small -->
  <rect x="80" y="237" width="60" height="10" fill="#de0e14" opacity="0.35" rx="1"/>
  <rect x="190" y="237" width="60" height="10" fill="#de0e14" opacity="0.4" rx="1"/>
  <rect x="300" y="237" width="60" height="10" fill="#de0e14" opacity="0.35" rx="1"/>
  <rect x="410" y="237" width="60" height="10" fill="#de0e14" opacity="0.4" rx="1"/>
  <rect x="520" y="237" width="60" height="10" fill="#de0e14" opacity="0.35" rx="1"/>
  <rect x="630" y="237" width="60" height="10" fill="#de0e14" opacity="0.4" rx="1"/>
  <!-- Horizon lines -->
  <line x1="0" y1="275" x2="800" y2="275" stroke="#de0e14" stroke-width="0.5" opacity="0.2"/>
  <line x1="0" y1="290" x2="800" y2="290" stroke="#de0e14" stroke-width="0.5" opacity="0.15"/>
  <!-- Sun -->
  <circle cx="120" cy="80" r="50" fill="none" stroke="#de0e14" stroke-width="2" opacity="0.5"/>
  <text x="400" y="370" text-anchor="middle" font-family="Instrument Serif, Georgia, serif" font-size="18" fill="#de0e14" opacity="0.7">Parc Solaire au Sol</text>
</svg>
