<svg xmlns="http://www.w3.org/2000/svg" width="800" height="400" viewBox="0 0 800 400">
  <defs>
    <linearGradient id="bg2" x1="0" y1="0" x2="1" y2="1">
      <stop offset="0%" stop-color="#1a1a2e"/>
      <stop offset="100%" stop-color="#16213e"/>
    </linearGradient>
  </defs>
  <rect width="800" height="400" fill="url(#bg2)"/>
  <rect x="80" y="140" width="640" height="160" fill="none" stroke="#de0e14" stroke-width="3" opacity="0.7"/>
  <rect x="80" y="90" width="640" height="50" fill="none" stroke="#de0e14" stroke-width="3" opacity="0.6"/>
  <rect x="120" y="98" width="42" height="24" fill="#de0e14" opacity="0.7" rx="2"/>
  <rect x="170" y="98" width="42" height="24" fill="#de0e14" opacity="0.75" rx="2"/>
  <rect x="220" y="98" width="42" height="24" fill="#de0e14" opacity="0.7" rx="2"/>
  <rect x="270" y="98" width="42" height="24" fill="#de0e14" opacity="0.75" rx="2"/>
  <rect x="320" y="98" width="42" height="24" fill="#de0e14" opacity="0.7" rx="2"/>
  <rect x="370" y="98" width="42" height="24" fill="#de0e14" opacity="0.75" rx="2"/>
  <rect x="420" y="98" width="42" height="24" fill="#de0e14" opacity="0.7" rx="2"/>
  <rect x="470" y="98" width="42" height="24" fill="#de0e14" opacity="0.75" rx="2"/>
  <rect x="520" y="98" width="42" height="24" fill="#de0e14" opacity="0.7" rx="2"/>
  <rect x="570" y="98" width="42" height="24" fill="#de0e14" opacity="0.75" rx="2"/>
  <rect x="620" y="98" width="42" height="24" fill="#de0e14" opacity="0.7" rx="2"/>
  <rect x="120" y="172" width="38" height="30" fill="none" stroke="#de0e14" stroke-width="2" opacity="0.5"/>
  <rect x="175" y="172" width="38" height="30" fill="none" stroke="#de0e14" stroke-width="2" opacity="0.5"/>
  <rect x="230" y="172" width="38" height="30" fill="none" stroke="#de0e14" stroke-width="2" opacity="0.5"/>
  <rect x="285" y="172" width="38" height="30" fill="none" stroke="#de0e14" stroke-width="2" opacity="0.5"/>
  <rect x="340" y="172" width="38" height="30" fill="none" stroke="#de0e14" stroke-width="2" opacity="0.5"/>
  <rect x="395" y="172" width="38" height="30" fill="none" stroke="#de0e14" stroke-width="2" opacity="0.5"/>
  <rect x="120" y="220" width="200" height="70" fill="none" stroke="#de0e14" stroke-width="2" opacity="0.5"/>
  <rect x="340" y="220" width="200" height="70" fill="none" stroke="#de0e14" stroke-width="2" opacity="0.5"/>
  <rect x="560" y="220" width="140" height="70" fill="none" stroke="#de0e14" stroke-width="2" opacity="0.5"/>
  <circle cx="700" cy="80" r="40" fill="none" stroke="#de0e14" stroke-width="2" opacity="0.55"/>
  <text x="400" y="370" text-anchor="middle" font-family="Instrument Serif, Georgia, serif" font-size="18" fill="#de0e14" opacity="0.7">Photovoltaique Commercial &amp; Industriel</text>
</svg>
